<?xml version="1.0" encoding="UTF-8"?>
<svg xmlns="http://www.w3.org/2000/svg" viewBox="0 0 12 12">
  <defs>
    <style>
      .cls-1 {
        fill: #0d223e;
      }

      .cls-2 {
        fill: #d1ddf5;
      }

      .cls-3 {
        fill: none;
        stroke: #ec008c;
        stroke-miterlimit: 10;
        stroke-width: .1px;
      }
    </style>
  </defs>
  <g id="Layer_4" data-name="Layer 4">
    <path class="cls-2" d="M.97,8s2.31.56,5.14.56,4.27-.72,4.27-.72h0v.36l-.66,1-1.09.56s-.06,1.41-.81,1.39-1.27-.88-1.27-.88l-1.55-.06s-.45,1.03-1.13.94-.92-1.35-.92-1.35c0,0-1.95-1.2-1.97-1.8Z"/>
  </g>
  <g id="Layer_2" data-name="Layer 2">
    <path class="cls-1" d="M9.23,5.87c0,.25-.21.46-.46.46s-.46-.21-.46-.46.21-.46.46-.46.46.21.46.46ZM11.52,6.1v1.38c0,.38-.31.69-.69.69h-.1c-.39.85-1.1,1.5-1.97,1.83v.23c0,.63-.51,1.15-1.15,1.15-.55,0-1.02-.39-1.12-.92h-1.42c-.11.52-.57.92-1.12.92-.63,0-1.15-.51-1.15-1.15v-.23c-1.52-.57-2.45-2.08-2.27-3.72.06-.57.27-1.1.59-1.56-.38-.25-.61-.68-.61-1.14,0-.76.62-1.38,1.38-1.38.13,0,.23.1.23.23s-.1.23-.23.23c-.51,0-.92.41-.92.92,0,.32.17.62.44.78.68-.76,1.69-1.24,2.78-1.24h3.27c.16-.59.61-1.06,1.29-1.33.21-.08.45-.06.64.07.19.13.3.34.3.57v1.43c.51.4.92.94,1.15,1.55h0c.28,0,.69.18.69.69h0ZM11.06,6.1c0-.18-.13-.23-.23-.23h-.16c-.1,0-.19-.06-.22-.16-.2-.62-.6-1.17-1.13-1.55-.06-.04-.09-.11-.09-.19v-1.55c0-.08-.04-.15-.1-.19-.06-.04-.14-.05-.22-.02-.42.17-.95.51-1.05,1.17-.02.12-.11.2-.23.2h-3.44c-1.63,0-3.03,1.2-3.2,2.75-.16,1.48.71,2.83,2.12,3.29.09.03.16.12.16.22v.39c0,.38.31.69.69.69s.69-.31.69-.69c0-.13.1-.23.23-.23h1.84c.13,0,.23.1.23.23,0,.38.31.69.69.69s.69-.31.69-.69v-.39c0-.1.06-.19.16-.22.86-.28,1.56-.93,1.91-1.77.04-.09.12-.14.21-.14h.25c.13,0,.23-.1.23-.23v-1.38h0ZM3.49,2.82c.13,0,.23-.1.23-.23,0-.76.62-1.38,1.38-1.38s1.38.62,1.38,1.38c0,.13.1.23.23.23s.23-.1.23-.23c0-1.01-.82-1.84-1.84-1.84s-1.84.82-1.84,1.84c0,.13.1.23.23.23Z"/>
  </g>
  <g id="Layer_1" data-name="Layer 1">
    <rect class="cls-3" x=".74" y=".74" width="10.53" height="10.53"/>
  </g>
</svg>