<?xml version="1.0" encoding="UTF-8"?>
<svg xmlns="http://www.w3.org/2000/svg" viewBox="0 0 12 12">
  <defs>
    <style>
      .cls-1 {
        fill: #0d223e;
      }

      .cls-2 {
        fill: #d1ddf5;
      }
    </style>
  </defs>
  <g id="Layer_4" data-name="Layer 4">
    <path class="cls-2" d="M8.58,3.58h-2.78l-.21.45-.32,2.41-.46.41-.95-.2-.49-2.62-.66-.45h-.45s-.03-1.45,1.36-1.79c0,0,.68-.9,1.81-.83s1.23.83,1.23.83c0,0,1.35-.09,1.49.37s.45,1.42.45,1.42Z"/>
  </g>
  <g id="Layer_2" data-name="Layer 2">
    <path class="cls-1" d="M3.6,11.17c-1.14,0-2.06-.93-2.06-2.06V3.68c0-.14.11-.25.25-.25h.2v-.2c0-.85.66-1.55,1.51-1.6h.1s.06-.09.06-.09c.11-.17.25-.32.41-.44.32-.25.71-.38,1.11-.38.58,0,1.11.26,1.46.72.09.12.22.18.37.18.1,0,.15,0,.2,0,.28,0,.56.07.8.21.51.28.82.82.81,1.4v.2s.2,0,.2,0c.14,0,.25.11.25.25v1.1h.43c.76,0,1.38.62,1.38,1.38v1.36c0,.76-.62,1.38-1.38,1.38h-.43v.2c0,1.14-.93,2.06-2.06,2.06h-3.62ZM2.05,9.11c0,.86.7,1.56,1.56,1.56h3.62c.86,0,1.56-.7,1.56-1.56V3.93h-2.46c-.36,0-.65.29-.65.65v1.36c0,.64-.52,1.16-1.16,1.16s-1.16-.52-1.16-1.16v-1.36c0-.36-.29-.65-.65-.65h-.65v5.18ZM9.28,8.41h.43c.48,0,.88-.39.88-.88v-1.36c0-.48-.39-.88-.88-.88h-.43v3.12ZM3.6,2.12c-.61,0-1.1.5-1.1,1.1v.2h.2c.64,0,1.16.52,1.16,1.16v1.36c0,.36.29.65.65.65s.65-.29.65-.65v-1.36c0-.64.52-1.16,1.16-1.16h2v-.2c.01-.39-.19-.76-.53-.95-.18-.1-.38-.15-.58-.15-.13,0-.17,0-.2,0-.3,0-.59-.14-.77-.38-.13-.17-.3-.31-.49-.4-.18-.08-.37-.13-.57-.13-.51,0-.99.3-1.21.76-.04.09-.13.15-.23.15-.07,0-.15-.02-.15-.02Z"/>
  </g>
</svg>