<?xml version="1.0" encoding="UTF-8"?>
<svg xmlns="http://www.w3.org/2000/svg" viewBox="0 0 12 12">
  <defs>
    <style>
      .cls-1 {
        fill: #0d223e;
      }

      .cls-2 {
        fill: #d1ddf5;
      }
    </style>
  </defs>
  <g id="Layer_4" data-name="Layer 4">
    <path class="cls-2" d="M5.73,3.03c1.31-.31.98-1.78.98-1.78-.16,1.19-1.65,1.16-1.65,1.16-2.47-.21-3,2.12-3,2.12-1.86.47-1.06,3-1.06,3-.6.49-1.06,1.46-.34,2.62.49.79,1.33.67,1.81.51v-.11s-1.24-1.17-1.24-1.17l.81-1.44.32.22v-.14s.27-.49.27-.49l.75-.74s2.25-2.26,2.53-2.75c.28-.49,0-.75,0-.75,0,.01-.01.31-.9.47-.9.15-1.16,1.39-1.16,1.39,0,0-.21-.49-.12-1,.08-.52.69-.81,2-1.12Z"/>
  </g>
  <g id="Layer_2" data-name="Layer 2">
    <path class="cls-1" d="M10.97,1.95l-.95-.95c-.4-.4-1.06-.4-1.47,0L3.18,6.37l-1.24,1.24s0,.02-.01.04c0,0-.02,0-.03.02l-.89,1.59c-.05.08-.04.18,0,.26.37.58.86,1.07,1.45,1.45.04.03.09.04.14.04.04,0,.09-.01.12-.03l1.57-.91s0-.02.02-.03c.01,0,.03,0,.04-.01l1.24-1.24,5.37-5.37c.2-.2.3-.46.3-.73s-.11-.54-.3-.73ZM2.62,10.46c-.43-.3-.8-.67-1.1-1.1l.66-1.17.8.8.8.8-1.16.67ZM4.18,9.49l-1.71-1.71.89-.89.85.85.85.85-.89.89ZM10.61,3.06l-5.19,5.19-.85-.85-.85-.85L8.91,1.35c.2-.2.56-.2.76,0l.95.95c.21.21.21.55,0,.76Z"/>
    <circle class="cls-1" cx="6.28" cy="5.78" r=".45"/>
  </g>
</svg>