<svg height="77" width="146" xmlns="http://www.w3.org/2000/svg"><mask id="a" fill="#fff"><path d="M.234.086h60v144h-60z" fill-rule="evenodd"/></mask><path d="M42.085 128.916c-2.52-.85-4.955-1.681-7.303-2.76-5.118-2.352-9.742-5.435-13.955-9.133a58.885 58.885 0 0 1-10.206-11.688c-4.22-6.342-7.24-13.201-8.879-20.66-2.106-9.577-1.958-19.122.146-28.674 2.138-9.704 6.184-18.534 12.035-26.58 4.449-6.115 9.726-11.39 15.709-16.023 6.35-4.92 13.365-8.582 20.896-11.317 2.447-.889 4.982-1.467 7.54-1.935.271-.05.552-.065.827-.06.625.016 1.048.356 1.257.915.221.595-.023 1.131-.493 1.461-.582.409-1.238.724-1.886 1.028-5.555 2.602-11.07 5.278-16.244 8.595-4.946 3.17-9.533 6.778-13.728 10.89-4.924 4.83-9.023 10.269-12.344 16.29a62.243 62.243 0 0 0-7.023 20.52C6.96 69.158 7.353 78.456 10.23 87.56c1.62 5.126 4.074 9.861 7.122 14.294 3.57 5.19 7.959 9.603 13.064 13.274 4.047 2.91 8.434 5.24 13.187 6.844 1.465.494 2.893 1.095 4.335 1.653.267.103.514.187.754-.057.271-.275.064-.5-.073-.722-.202-.327-.402-.66-.64-.962-3.336-4.253-6.711-8.472-10.502-12.343-1.035-1.057-1.161-1.999-.415-2.91.785-.959 2.065-1.04 3.265-.256 5.979 3.9 11.072 8.752 15.557 14.263 1.788 2.198 1.743 3.644-.243 5.612-5.952 5.895-12.602 10.898-19.768 15.23-1.27.769-2.657 1.351-4.006 1.986-.701.33-1.452.56-2.23.611-1.196.079-2.19-.306-2.791-1.402-.519-.944-.28-2.306.583-3.186 1.247-1.271 2.767-2.195 4.244-3.158 3.24-2.114 6.489-4.21 9.586-6.528.301-.225.64-.403.825-.886" fill="#dcdcdc" fill-rule="evenodd" mask="url(#a)" transform="scale(-1 1) rotate(69 4.553 -26.198)"/></svg>