<svg data-name="Layer 1" xmlns="http://www.w3.org/2000/svg" viewBox="0 0 43.08 43.08"><path d="M13.21 41.4a22.19 22.19 0 0 1-6.87-4.65 21.69 21.69 0 0 1-4.65-6.86A20.7 20.7 0 0 1 0 21.54a20.68 20.68 0 0 1 1.69-8.33A21.92 21.92 0 0 1 13.21 1.69 20.62 20.62 0 0 1 21.52 0a20.7 20.7 0 0 1 8.35 1.69 21.92 21.92 0 0 1 11.52 11.52 20.68 20.68 0 0 1 1.69 8.33 20.7 20.7 0 0 1-1.69 8.35 21.69 21.69 0 0 1-4.65 6.86 22.19 22.19 0 0 1-6.87 4.65 20.84 20.84 0 0 1-8.33 1.68 20.84 20.84 0 0 1-8.33-1.68ZM7.56 23a1 1 0 0 0 1.08.67h1.8a10.92 10.92 0 0 0 6 8 11.54 11.54 0 0 0 5.17 1.15 11.1 11.1 0 0 0 3.39-.57 10 10 0 0 0 2.83-1.44 2.45 2.45 0 0 0 1.05-1.45 1.73 1.73 0 0 0-.32-1.49 2 2 0 0 0-1.27-.8 2.23 2.23 0 0 0-1.6.41 7.93 7.93 0 0 1-2 1 6.63 6.63 0 0 1-2.17.34 7.54 7.54 0 0 1-3.19-.67 7.46 7.46 0 0 1-2.52-1.84 7 7 0 0 1-1.5-2.69h1.66a1 1 0 0 0 1.17-.62 1.41 1.41 0 0 0-.27-1.34l-3.35-4.47a1.4 1.4 0 0 0-1.18-.66 1.42 1.42 0 0 0-1.21.66l-3.29 4.46A1.36 1.36 0 0 0 7.56 23Zm8.27-7a2.23 2.23 0 0 0 1.61-.43 7.75 7.75 0 0 1 2-1 6.6 6.6 0 0 1 2.18-.35 7.68 7.68 0 0 1 3.18.67 7.52 7.52 0 0 1 2.52 1.86 7.26 7.26 0 0 1 1.5 2.68h-1.77a1 1 0 0 0-1.09.68 1.42 1.42 0 0 0 .27 1.35l3.33 4.47a1.52 1.52 0 0 0 1.21.64A1.36 1.36 0 0 0 32 25.9l3.31-4.47a1.42 1.42 0 0 0 .27-1.35 1 1 0 0 0-1.07-.68h-1.78a10.94 10.94 0 0 0-2.07-4.73 11.15 11.15 0 0 0-3.92-3.22 11.4 11.4 0 0 0-5.16-1.17 11.12 11.12 0 0 0-3.45.53 9.46 9.46 0 0 0-2.83 1.46 2.37 2.37 0 0 0-1.05 1.45 1.81 1.81 0 0 0 .31 1.47 1.92 1.92 0 0 0 1.27.81Z" style="fill:#fff"/></svg>