<svg width="60" height="60" viewBox="0 0 60 60" fill="none" xmlns="http://www.w3.org/2000/svg">
<g clip-path="url(#clip0_1136_227)">
<path d="M41 49H44L47 60H44L41 49Z" fill="white"/>
<path d="M41 49H44L47 60H44L41 49Z" fill="#013BAE" fill-opacity="0.18"/>
<path d="M28.7996 30.0628C28.4902 29.3998 28.9742 28.6399 29.7058 28.6399L35.1032 28.6399C35.5336 28.6399 35.9157 28.9153 36.0519 29.3236L38.1311 35.5612C38.3469 36.2087 37.8649 36.8774 37.1824 36.8774L32.6166 36.8774C32.2281 36.8774 31.8748 36.6524 31.7105 36.3003L28.7996 30.0628Z" fill="white"/>
<path d="M28.7996 30.0628C28.4902 29.3998 28.9742 28.6399 29.7058 28.6399L35.1032 28.6399C35.5336 28.6399 35.9157 28.9153 36.0519 29.3236L38.1311 35.5612C38.3469 36.2087 37.8649 36.8774 37.1824 36.8774L32.6166 36.8774C32.2281 36.8774 31.8748 36.6524 31.7105 36.3003L28.7996 30.0628Z" fill="#013BAE" fill-opacity="0.18"/>
<path d="M5 14C5 13.4477 5.44772 13 6 13H19.5422C19.9716 13 20.3531 13.2742 20.49 13.6812L22.6935 20.2313C22.8647 20.7402 22.6035 21.2934 22.1017 21.4846L6.35602 27.4834C5.70148 27.7328 5 27.2493 5 26.5489V14Z" fill="white"/>
<path d="M5 14C5 13.4477 5.44772 13 6 13H19.5422C19.9716 13 20.3531 13.2742 20.49 13.6812L22.6935 20.2313C22.8647 20.7402 22.6035 21.2934 22.1017 21.4846L6.35602 27.4834C5.70148 27.7328 5 27.2493 5 26.5489V14Z" fill="#013BAE" fill-opacity="0.18"/>
<path fill-rule="evenodd" clip-rule="evenodd" d="M18.4562 12.6701C17.6324 10.573 19.1742 8.29999 21.4321 8.29999H40.5001C41.9463 8.29999 43.9076 8.72347 45.6048 9.71345C47.3236 10.7161 48.8813 12.3749 49.1909 14.8511C49.4822 17.182 48.7567 19.5986 47.4868 21.433C46.2815 23.174 44.4444 24.5758 42.2899 24.6922C43.2322 26.9837 44.4113 29.8776 45.4647 32.5178C46.1282 34.1808 46.7436 35.7474 47.219 37.001C47.6817 38.221 48.0433 39.2251 48.1643 39.7089C48.1965 39.8378 48.2329 39.9789 48.272 40.1302C48.5157 41.0747 48.8627 42.4191 48.9394 43.6957C49.0259 45.1351 48.7994 47.0199 47.1175 48.029C45.8578 48.7848 45.0127 49.219 44.3171 49.4509C43.5696 49.7001 43.0336 49.7 42.5213 49.7H38.0001C37.4748 49.7 36.7134 49.5522 36.049 49.0738C35.3233 48.5514 34.8001 47.6911 34.8001 46.5C34.8001 46.3964 34.7999 46.2924 34.7997 46.1882C34.7978 45.3387 34.7959 44.4765 34.9171 43.7103C35.0617 42.7958 35.3931 41.91 36.1516 41.1515C36.5062 40.7969 36.8878 40.5481 37.2094 40.3643C37.3696 40.2728 37.524 40.1924 37.6514 40.1263L37.6611 40.1213C37.6842 40.1093 37.7062 40.0979 37.7271 40.087C37.5493 39.6664 37.2888 39.0221 36.9827 38.2563C36.5094 37.0719 35.8958 35.5159 35.2329 33.8255C34.0323 30.7637 32.6679 27.2546 31.678 24.7H25.3627C24.0467 24.7 22.8658 23.8944 22.3848 22.6701L18.4562 12.6701ZM34.2521 24.7C35.2003 27.1446 36.399 30.2248 37.4673 32.9494C38.1295 34.6382 38.7409 36.1885 39.2113 37.3656C39.4466 37.9545 39.6456 38.4473 39.7976 38.8163C39.8737 39.001 39.9367 39.1517 39.986 39.2665C40.0106 39.3239 40.0308 39.37 40.0467 39.4055C40.0526 39.4186 40.0576 39.4296 40.0618 39.4387C40.0632 39.4418 40.0646 39.4447 40.0659 39.4474L40.0715 39.4594C40.0729 39.4622 40.0735 39.4635 40.0734 39.4633C40.3149 39.9462 40.4231 40.5676 40.0906 41.172C39.8289 41.648 39.3848 41.9123 39.158 42.0419C38.9678 42.1506 38.8042 42.2356 38.6589 42.3111C38.3276 42.4833 38.0908 42.6063 37.8486 42.8485C37.5465 43.1506 37.3778 43.5148 37.2876 44.0852C37.1983 44.6502 37.199 45.3084 37.1999 46.2073C37.2 46.3021 37.2001 46.3996 37.2001 46.5C37.2001 46.7287 37.2464 46.8619 37.2853 46.9373C37.3247 47.0137 37.3789 47.0741 37.4513 47.1261C37.6201 47.2477 37.8588 47.3 38.0001 47.3H42.5001C42.9814 47.3 43.191 47.2964 43.5581 47.1741C43.9876 47.0309 44.6424 46.7152 45.8827 45.971C46.3446 45.6939 46.6181 45.0786 46.5437 43.8396C46.4822 42.8159 46.2034 41.7285 45.9572 40.7678C45.9154 40.6049 45.8746 40.4457 45.836 40.291C45.7569 39.9749 45.4561 39.1207 44.975 37.8521C44.5066 36.6172 43.897 35.0651 43.2356 33.4072C42.0419 30.4155 40.6849 27.0936 39.6975 24.7H34.2521ZM21.4321 10.7C20.8706 10.7 20.483 11.2655 20.69 11.7925L24.6186 21.7925C24.739 22.099 25.0341 22.3 25.3627 22.3H42.0001C43.2208 22.3 44.5225 21.4984 45.5135 20.0669C46.4935 18.6514 47.018 16.818 46.8094 15.1488C46.6189 13.6251 45.6766 12.5339 44.3955 11.7865C43.0926 11.0265 41.554 10.7 40.5001 10.7H21.4321Z" fill="#0D223E"/>
</g>
<defs>
<clipPath id="clip0_1136_227">
<rect width="60" height="60" fill="white"/>
</clipPath>
</defs>
</svg>
